<?xml version="1.0" standalone="no"?>
<!DOCTYPE svg PUBLIC "-//W3C//DTD SVG 20010904//EN"
 "http://www.w3.org/TR/2001/REC-SVG-20010904/DTD/svg10.dtd">
<svg version="1.0" xmlns="http://www.w3.org/2000/svg"
 width="1500.000000pt" height="1500.000000pt" viewBox="0 0 1500.000000 1500.000000"
 preserveAspectRatio="xMidYMid meet">
<metadata>
Created by potrace 1.11, written by Peter Selinger 2001-2013
</metadata>
<g transform="translate(0.000000,1500.000000) scale(0.100000,-0.100000)"
fill="#000000" stroke="none">
<path d="M6418 12225 c-2 -1 -38 -6 -80 -9 -43 -3 -83 -8 -90 -11 -7 -2 -33
-6 -58 -9 -105 -10 -409 -93 -513 -140 -18 -8 -66 -29 -107 -47 -280 -124
-559 -331 -775 -574 -268 -301 -457 -701 -526 -1110 -5 -33 -12 -71 -14 -85
-26 -136 -25 -527 0 -670 1 -8 6 -35 10 -60 12 -81 55 -238 89 -334 97 -267
262 -530 496 -790 75 -83 95 -104 187 -198 l95 -98 -26 -10 c-45 -17 -282
-137 -359 -181 -314 -183 -625 -447 -818 -695 -29 -38 -56 -71 -60 -74 -36
-30 -219 -332 -271 -449 -17 -36 -40 -88 -53 -116 -12 -27 -28 -68 -35 -90 -7
-22 -15 -44 -19 -50 -3 -5 -6 -12 -6 -15 -1 -3 -13 -43 -28 -90 -120 -381
-153 -830 -92 -1242 147 -990 875 -1833 1858 -2152 232 -75 450 -122 672 -143
104 -10 521 -10 605 0 36 5 85 10 110 13 195 22 536 114 738 200 400 172 697
376 1032 713 181 181 357 395 508 614 l32 48 178 -175 c97 -96 234 -230 303
-298 70 -68 297 -290 505 -494 209 -205 440 -431 514 -503 l134 -131 101 99
c55 55 260 257 455 450 l355 351 -520 516 c-286 283 -710 705 -943 936 l-422
420 186 367 c103 201 235 461 294 576 59 116 172 336 250 490 278 546 607
1190 730 1431 31 61 59 118 63 127 5 13 -76 15 -735 13 l-741 -1 -158 -310
c-88 -170 -192 -375 -231 -455 -40 -80 -75 -147 -78 -150 -3 -3 -65 -124 -139
-270 -74 -146 -160 -314 -191 -375 -32 -60 -94 -183 -139 -273 -45 -89 -86
-162 -91 -162 -5 0 -36 26 -68 58 -33 31 -129 122 -213 202 -84 80 -176 168
-204 195 -29 28 -90 86 -137 130 -46 44 -164 157 -263 251 -99 95 -218 208
-265 252 -47 44 -83 82 -80 85 3 3 52 28 110 57 118 59 322 179 420 248 69 48
244 185 271 211 9 9 36 35 60 57 68 64 171 174 214 229 22 27 46 56 52 63 33
35 148 220 201 322 94 183 170 410 202 607 6 40 14 85 17 100 9 53 11 508 3
568 -9 58 -29 184 -35 215 -13 71 -50 203 -80 285 -19 55 -37 107 -39 115 -10
37 -104 224 -159 315 -100 167 -187 277 -330 424 -179 182 -378 325 -612 440
-172 85 -299 133 -470 176 -148 37 -201 47 -360 64 -73 8 -409 13 -417 6z
m337 -1229 c139 -31 298 -101 402 -177 184 -135 328 -356 372 -569 6 -30 14
-66 17 -80 30 -141 19 -383 -26 -548 -63 -230 -239 -462 -481 -634 -120 -86
-274 -182 -419 -260 -36 -19 -100 -54 -143 -78 -77 -41 -79 -42 -99 -23 -204
182 -425 420 -536 577 -86 122 -176 297 -198 385 -29 119 -36 174 -39 291 -3
149 4 222 36 354 82 347 323 618 644 725 50 16 110 33 135 36 25 4 47 8 48 10
6 6 255 -2 287 -9z m-535 -3986 c100 -96 211 -202 245 -235 34 -33 154 -148
266 -255 112 -107 226 -217 255 -245 149 -144 445 -428 489 -469 375 -357 525
-504 525 -516 0 -5 -26 -55 -59 -112 -271 -478 -588 -808 -956 -998 -267 -137
-507 -191 -820 -185 -93 2 -186 6 -205 10 -110 19 -154 29 -240 55 -97 29
-233 83 -260 104 -8 6 -31 20 -50 30 -136 73 -317 240 -425 391 -108 151 -211
385 -244 555 -6 30 -14 66 -17 80 -18 89 -25 340 -12 487 25 279 135 569 306
803 51 69 229 253 298 308 34 27 233 162 238 162 2 0 33 16 67 36 103 58 390
178 410 171 4 -1 89 -81 189 -177z"/>
<path d="M2767 12054 c-1 -1 -54 -5 -117 -8 -63 -3 -126 -8 -140 -10 -14 -2
-56 -7 -95 -11 -38 -4 -79 -9 -90 -11 -11 -2 -47 -9 -80 -15 -295 -52 -669
-217 -920 -404 -116 -86 -300 -274 -382 -390 -158 -223 -268 -509 -299 -775
-3 -30 -8 -64 -11 -75 -3 -11 -7 -146 -10 -300 -3 -154 -7 -282 -9 -284 -2 -2
-141 -4 -309 -4 l-305 1 2 -586 3 -586 308 0 307 0 0 -2827 0 -2826 660 0 660
0 0 2826 0 2827 613 0 612 0 1 585 2 586 -612 0 -611 0 0 229 c0 241 3 266 33
354 34 97 75 162 152 240 185 184 493 282 930 294 l105 4 1 585 2 586 -200 -2
c-110 -1 -200 -3 -201 -3z"/>
<path d="M14657 12054 c-1 -1 -63 -4 -137 -7 -74 -4 -157 -9 -185 -11 -51 -6
-156 -19 -165 -21 -3 0 -27 -4 -55 -9 -277 -42 -668 -203 -900 -370 -104 -75
-172 -132 -255 -217 -103 -105 -118 -122 -188 -219 -130 -182 -228 -415 -275
-655 -35 -175 -40 -248 -41 -532 -1 -209 -3 -243 -16 -244 -8 0 -148 -1 -310
-2 l-295 -2 0 -585 0 -585 310 0 310 0 0 -2825 0 -2825 657 -1 658 -1 2 2826
3 2826 613 0 612 0 -2 585 -3 585 -590 2 c-324 1 -600 2 -613 2 l-23 1 2 209
c1 221 12 301 51 401 125 319 518 499 1095 504 l83 1 0 587 0 587 -171 -2
c-94 -1 -171 -3 -172 -3z"/>
</g>
</svg>
